<svg width="18" height="17" viewBox="0 0 18 17" fill="none" xmlns="http://www.w3.org/2000/svg">
<path d="M16.48 8.67706C16.48 8.12456 16.4304 7.59331 16.3383 7.08331H9V10.0973H13.1933C13.0127 11.0712 12.4638 11.8964 11.6385 12.4489V14.4039H14.1567C15.63 13.0475 16.48 11.05 16.48 8.67706Z" fill="#4285F4"/>
<path d="M9.00003 16.2917C11.1038 16.2917 12.8675 15.5939 14.1567 14.4039L11.6386 12.4489C10.9409 12.9164 10.0484 13.1927 9.00003 13.1927C6.97065 13.1927 5.25294 11.8221 4.64023 9.98041H2.03711V11.9992C3.31919 14.5456 5.95419 16.2917 9.00003 16.2917Z" fill="#34A853"/>
<path d="M4.64019 9.98044C4.48435 9.51294 4.39581 9.01356 4.39581 8.50002C4.39581 7.98648 4.48435 7.4871 4.64019 7.0196V5.00085H2.03706C1.49165 6.08663 1.20783 7.28496 1.20831 8.50002C1.20831 9.75731 1.50936 10.9473 2.03706 11.9992L4.64019 9.98044Z" fill="#FBBC05"/>
<path d="M9.00003 3.80727C10.144 3.80727 11.1711 4.2004 11.9786 4.97248L14.2134 2.73769C12.864 1.4804 11.1002 0.708313 9.00003 0.708313C5.95419 0.708313 3.31919 2.45435 2.03711 5.00081L4.64023 7.01956C5.25294 5.1779 6.97065 3.80727 9.00003 3.80727Z" fill="#EA4335"/>
</svg>
