<svg width="126" height="24" viewBox="0 0 126 24" fill="none" xmlns="http://www.w3.org/2000/svg">
<path d="M4.79638 19.024L2.3231 16.175L10.3378 7.34634H15.253L4.79638 19.024ZM0.851657 23V1.08487H4.98422V23H0.851657ZM10.87 23L5.67299 15.4236L8.36542 12.5747L15.7226 23H10.87ZM28.0291 23L27.7786 20.1197V7.34634H31.9112V23H28.0291ZM17.4159 16.3002V7.34634H21.5485V15.361L17.4159 16.3002ZM21.5485 15.361C21.5485 16.4046 21.6633 17.229 21.8929 17.8343C22.1433 18.4187 22.4877 18.8466 22.926 19.1179C23.3852 19.3683 23.8965 19.4936 24.4601 19.4936C25.5454 19.5145 26.3698 19.1909 26.9334 18.5231C27.4969 17.8343 27.7786 16.8429 27.7786 15.5489H29.1875C29.1875 17.2186 28.937 18.6378 28.4361 19.8067C27.9561 20.9546 27.2673 21.8416 26.3698 22.4678C25.4932 23.0731 24.4601 23.3757 23.2704 23.3757C21.392 23.3757 19.9414 22.8017 18.9187 21.6538C17.9168 20.485 17.4159 18.7005 17.4159 16.3002L21.5485 15.361ZM46.6369 23L46.4178 20.0884V1.08487H50.5503V23H46.6369ZM41.7217 23.3757C40.2815 23.3757 39.0292 23.0417 37.9648 22.3739C36.9212 21.706 36.1072 20.7563 35.5228 19.5249C34.9384 18.2935 34.6462 16.8429 34.6462 15.1732C34.6462 13.4826 34.9384 12.032 35.5228 10.8214C36.1072 9.59003 36.9212 8.64037 37.9648 7.97248C39.0292 7.30459 40.2815 6.97065 41.7217 6.97065C43.0366 6.97065 44.1428 7.30459 45.0402 7.97248C45.9586 8.64037 46.6578 9.59003 47.1378 10.8214C47.6179 12.032 47.8579 13.4826 47.8579 15.1732C47.8579 16.8429 47.6179 18.2935 47.1378 19.5249C46.6578 20.7563 45.9586 21.706 45.0402 22.3739C44.1428 23.0417 43.0366 23.3757 41.7217 23.3757ZM42.7861 19.5875C43.4957 19.5875 44.1219 19.3997 44.6646 19.024C45.2281 18.6483 45.6664 18.1265 45.9795 17.4586C46.2925 16.7907 46.4491 16.0289 46.4491 15.1732C46.4491 14.3174 46.2925 13.5556 45.9795 12.8877C45.6664 12.2198 45.2281 11.7085 44.6646 11.3537C44.1219 10.978 43.4853 10.7901 42.7548 10.7901C42.0034 10.7901 41.346 10.978 40.7824 11.3537C40.2189 11.7085 39.7702 12.2198 39.4362 12.8877C39.1023 13.5556 38.9353 14.3174 38.9353 15.1732C38.9353 16.0289 39.1023 16.7907 39.4362 17.4586C39.7702 18.1265 40.2189 18.6483 40.7824 19.024C41.3668 19.3997 42.0347 19.5875 42.7861 19.5875ZM54.3613 23V7.34634H58.4938V23H54.3613ZM56.4275 4.81044C55.8014 4.81044 55.2483 4.58085 54.7683 4.12168C54.2882 3.64163 54.0482 3.0781 54.0482 2.43108C54.0482 1.78407 54.2882 1.23097 54.7683 0.771795C55.2483 0.291749 55.8014 0.0517265 56.4275 0.0517265C57.0746 0.0517265 57.6277 0.291749 58.0868 0.771795C58.5669 1.23097 58.8069 1.78407 58.8069 2.43108C58.8069 3.0781 58.5669 3.64163 58.0868 4.12168C57.6277 4.58085 57.0746 4.81044 56.4275 4.81044ZM62.555 23L65.4353 5.74966C65.7275 4.07994 66.364 2.7859 67.345 1.86755C68.3468 0.949203 69.7244 0.490029 71.4776 0.490029C72.0828 0.490029 72.709 0.594387 73.356 0.803102C74.0239 1.01182 74.6083 1.26228 75.1092 1.55448L73.1369 4.52867C72.8238 4.34083 72.5316 4.2156 72.2602 4.15299C72.0098 4.0695 71.7802 4.02776 71.5715 4.02776C70.9871 4.02776 70.5175 4.22604 70.1627 4.6226C69.8287 4.99829 69.5991 5.62443 69.4739 6.50104L66.6875 23H62.555ZM62.0228 10.6649L62.5863 7.34634H73.1682L72.6046 10.6649H62.0228ZM73.2802 23L76.9745 1.08487H81.107L77.4128 23H73.2802ZM88.9987 23.3757C87.3498 23.3757 85.9097 23.0104 84.6783 22.2799C83.4468 21.5494 82.5494 20.5372 81.9858 19.2431C81.4223 17.9282 81.2866 16.415 81.5788 14.7036C81.8293 13.1799 82.3719 11.8337 83.2068 10.6649C84.0417 9.4961 85.0852 8.58819 86.3375 7.94117C87.5898 7.29416 88.9569 6.97065 90.4388 6.97065C92.1085 6.97065 93.5487 7.3359 94.7592 8.0664C95.9906 8.79691 96.8777 9.81961 97.4203 11.1345C97.9839 12.4286 98.1195 13.9313 97.8273 15.6428C97.5769 17.1664 97.0342 18.5126 96.1993 19.6814C95.3645 20.8502 94.3209 21.7581 93.0686 22.4052C91.8372 23.0522 90.4805 23.3757 88.9987 23.3757ZM89.1239 19.5562C89.8544 19.5562 90.5327 19.3788 91.1589 19.024C91.8059 18.6692 92.3485 18.1682 92.7869 17.5212C93.2252 16.8742 93.5174 16.1228 93.6635 15.2671C93.8096 14.3487 93.7574 13.5556 93.5069 12.8877C93.2565 12.2198 92.8599 11.7085 92.3172 11.3537C91.7746 10.978 91.1067 10.7901 90.3136 10.7901C89.5831 10.7901 88.8943 10.9675 88.2473 11.3224C87.6211 11.6772 87.0889 12.1781 86.6506 12.8251C86.2123 13.4721 85.9097 14.2235 85.7427 15.0792C85.5966 15.9976 85.6488 16.7907 85.8992 17.4586C86.1497 18.1265 86.5567 18.6483 87.1202 19.024C87.6838 19.3788 88.3516 19.5562 89.1239 19.5562ZM102.601 23L99.9085 7.34634H104.104L106.452 23H102.601ZM103.008 23L110.647 7.34634H114.216L106.671 23H103.008ZM113.402 23L111.148 7.34634H114.717L117.065 23H113.402ZM113.402 23L121.229 7.34634H125.424L117.472 23H113.402Z" fill="black"/>
</svg>
